<?xml version="1.0" standalone="no"?>
<!DOCTYPE svg PUBLIC "-//W3C//DTD SVG 20010904//EN"
 "http://www.w3.org/TR/2001/REC-SVG-20010904/DTD/svg10.dtd">
<svg version="1.0" xmlns="http://www.w3.org/2000/svg"
 width="178.000000pt" height="165.000000pt" viewBox="0 0 178.000000 165.000000"
 preserveAspectRatio="xMidYMid meet">

<g transform="translate(0.000000,165.000000) scale(0.100000,-0.100000)"
fill="#000000" stroke="none">
<path d="M1058 1393 c-10 -2 -18 -8 -18 -12 0 -8 83 -91 92 -91 5 0 28 87 28
105 0 6 -79 4 -102 -2z"/>
<path d="M1002 1362 c8 -18 116 -111 122 -105 9 9 -94 113 -112 113 -8 0 -12
-3 -10 -8z"/>
<path d="M899 1293 c-64 -59 -139 -163 -139 -193 0 -9 18 -33 39 -54 l39 -38
59 31 c70 38 145 101 185 155 l30 41 -64 57 c-35 32 -68 58 -75 58 -6 0 -40
-26 -74 -57z m105 -55 c22 -35 -27 -74 -59 -48 -20 17 -19 47 3 59 23 14 42
10 56 -11z"/>
<path d="M950 1221 c0 -27 19 -36 37 -18 18 18 9 37 -18 37 -12 0 -19 -7 -19
-19z"/>
<path d="M734 1226 c-41 -18 -125 -116 -99 -116 4 0 19 7 36 15 21 12 34 13
48 5 11 -5 22 -10 24 -10 6 0 67 100 67 111 0 13 -40 10 -76 -5z"/>
<path d="M925 1038 c-48 -26 -50 -29 -50 -70 -1 -24 -5 -51 -9 -60 -13 -29 8
-21 57 23 29 25 50 53 56 76 16 56 3 63 -54 31z"/>
<path d="M730 1048 c0 -14 48 -58 64 -58 5 0 -5 16 -24 35 -38 39 -40 40 -40
23z"/>
<path d="M671 986 c-13 -13 -18 -26 -13 -30 5 -3 19 5 31 18 13 13 18 26 13
30 -5 3 -19 -5 -31 -18z"/>
<path d="M670 945 c-24 -24 -41 -48 -37 -51 4 -4 7 -2 7 4 0 7 7 12 15 12 8 0
15 -5 15 -11 0 -5 16 5 36 23 24 23 33 39 28 51 -9 25 -15 22 -64 -28z m60 22
c0 -2 -14 -16 -32 -33 -18 -16 -26 -20 -18 -9 19 25 50 52 50 42z"/>
<path d="M387 774 c-3 -3 -2 -17 4 -31 12 -31 12 -159 0 -182 -14 -25 2 -43
35 -39 28 3 29 4 25 57 -2 37 0 51 8 47 6 -4 11 -22 11 -41 0 -37 24 -68 49
-63 13 3 15 14 13 53 -2 28 -8 57 -12 65 -5 8 -4 23 2 33 14 27 1 85 -22 97
-20 11 -103 14 -113 4z m88 -74 c0 -13 -6 -25 -12 -27 -9 -3 -13 6 -13 27 0
21 4 30 13 28 6 -3 12 -15 12 -28z"/>
<path d="M577 762 c-13 -15 -17 -39 -17 -114 0 -110 8 -123 72 -123 58 0 68
20 68 130 0 76 -3 95 -18 108 -25 23 -85 22 -105 -1z m71 -111 c3 -75 1 -82
-15 -79 -15 3 -19 15 -21 72 -3 76 2 100 21 94 8 -3 13 -32 15 -87z"/>
<path d="M752 764 c-20 -14 -22 -23 -22 -109 0 -72 4 -97 16 -109 43 -43 123
-19 124 37 0 12 -8 17 -25 17 -16 0 -25 -6 -25 -16 0 -9 -7 -14 -17 -12 -15 3
-19 16 -21 77 -3 84 10 111 35 74 21 -31 53 -30 53 0 0 50 -70 75 -118 41z"/>
<path d="M895 770 c-3 -5 -1 -19 5 -31 13 -22 9 -163 -4 -191 -10 -22 13 -33
49 -24 23 6 25 10 20 49 l-5 42 20 -42 c20 -40 49 -61 70 -48 15 9 12 31 -6
45 -17 15 -44 74 -44 96 0 8 12 33 27 55 19 29 23 43 15 51 -16 16 -39 3 -63
-34 l-21 -33 7 38 c6 37 6 37 -29 37 -19 0 -38 -4 -41 -10z"/>
<path d="M1086 653 l2 -128 58 0 c58 0 59 1 62 29 3 28 3 28 -32 22 -35 -7
-36 -6 -36 24 0 26 4 30 26 30 21 0 25 4 22 23 -2 14 -11 23 -25 25 -17 3 -23
10 -23 29 0 23 2 25 35 19 34 -7 35 -6 35 24 l0 30 -62 0 -63 0 1 -127z"/>
<path d="M1237 774 c-4 -4 -7 -18 -7 -32 0 -22 3 -24 30 -18 l30 6 0 -75 c0
-43 -5 -84 -12 -95 -11 -17 -10 -22 2 -30 8 -6 26 -9 40 -8 l25 3 -3 103 -4
103 27 -7 c25 -6 26 -4 23 22 -3 29 -4 29 -73 32 -39 1 -74 0 -78 -4z"/>
<path d="M398 469 c-24 -13 -26 -140 -4 -158 20 -17 67 -10 80 11 14 23 0 35
-24 20 -29 -18 -30 -17 -30 43 0 51 10 69 25 45 11 -17 35 -11 35 10 0 33 -47
50 -82 29z"/>
<path d="M959 478 c0 -2 -1 -42 -2 -91 l-2 -87 48 0 c41 0 47 3 47 21 0 18 -4
20 -25 15 -20 -5 -25 -3 -25 14 0 11 7 20 15 20 8 0 15 7 15 15 0 8 -7 15 -15
15 -8 0 -15 9 -15 21 0 16 4 19 19 14 13 -4 23 0 30 12 8 14 10 -2 11 -64 0
-81 1 -83 24 -83 23 0 24 3 20 38 l-4 37 16 -37 c11 -25 23 -38 35 -38 17 0
19 8 19 69 0 38 3 76 6 85 5 12 -1 16 -25 16 -29 0 -30 -2 -26 -32 l5 -33 -14
31 c-13 26 -22 32 -62 38 -48 6 -93 8 -95 4z"/>
<path d="M1208 469 c-15 -8 -18 -24 -18 -85 0 -67 2 -75 21 -82 12 -5 34 -6
50 -4 27 4 29 7 29 48 0 40 -2 44 -25 44 -22 0 -24 -3 -18 -31 5 -25 3 -31 -8
-27 -20 7 -25 108 -5 108 8 0 16 -5 18 -12 5 -13 38 -4 38 11 0 16 -30 41 -48
41 -9 0 -25 -5 -34 -11z"/>
<path d="M1309 478 c0 -2 -1 -43 -2 -91 l-2 -88 45 3 c32 2 45 7 45 18 0 10
-8 14 -27 12 -22 -2 -28 1 -28 18 0 13 7 20 20 20 11 0 20 7 20 15 0 8 -9 15
-20 15 -14 0 -20 7 -20 21 0 17 4 20 24 15 29 -7 43 9 26 29 -10 12 -78 22
-81 13z"/>
<path d="M495 385 c0 -81 1 -85 23 -85 19 0 22 5 22 35 0 19 5 35 11 35 8 0
10 -12 6 -35 l-6 -35 55 0 c47 0 54 2 54 20 0 11 6 20 14 20 9 0 12 -7 9 -20
-4 -16 0 -20 21 -20 30 0 30 0 16 49 -5 20 -14 55 -20 79 -9 36 -15 42 -36 42
-19 0 -25 -4 -21 -14 3 -8 2 -29 -3 -48 -4 -18 -11 -45 -14 -60 -4 -16 -11
-28 -17 -28 -8 0 -10 25 -7 75 l3 75 -27 0 c-25 0 -27 -2 -21 -30 3 -19 1 -30
-6 -30 -6 0 -11 14 -11 30 0 24 -4 30 -22 30 -22 0 -23 -4 -23 -85z m182 -7
c-3 -8 -6 -5 -6 6 -1 11 2 17 5 13 3 -3 4 -12 1 -19z"/>
<path d="M745 385 l0 -84 98 0 c91 0 97 1 97 21 0 17 -4 19 -26 14 l-26 -7 4
71 c4 69 3 70 -22 70 -25 0 -25 0 -22 -77 2 -47 -1 -73 -6 -65 -6 9 -18 11
-37 6 l-28 -7 5 72 c5 67 4 71 -16 71 -20 0 -21 -5 -21 -85z"/>
</g>
</svg>
